<mxfile host="app.diagrams.net" agent="Mozilla/5.0 (Windows NT 10.0; Win64; x64) AppleWebKit/537.36 (KHTML, like Gecko) Chrome/131.0.0.0 Safari/537.36 OPR/116.0.0.0" version="26.0.14">
  <diagram name="Page-1" id="XxYQ1zuUp3-ezVA03Rqw">
    <mxGraphModel grid="1" page="1" gridSize="10" guides="1" tooltips="1" connect="1" arrows="1" fold="1" pageScale="1" pageWidth="850" pageHeight="1100" math="0" shadow="0">
      <root>
        <mxCell id="0" />
        <mxCell id="1" parent="0" />
        <mxCell id="5Vd59JES6VcQEHUetqd3-1" value="Basic consumer/customer&lt;div&gt;&lt;br&gt;&lt;/div&gt;" style="shape=umlActor;verticalLabelPosition=bottom;verticalAlign=top;html=1;outlineConnect=0;" vertex="1" parent="1">
          <mxGeometry y="330" width="30" height="60" as="geometry" />
        </mxCell>
        <mxCell id="5Vd59JES6VcQEHUetqd3-3" value="" style="swimlane;startSize=0;" vertex="1" parent="1">
          <mxGeometry x="160" y="70" width="260" height="640" as="geometry">
            <mxRectangle x="160" y="70" width="50" height="40" as="alternateBounds" />
          </mxGeometry>
        </mxCell>
        <mxCell id="5Vd59JES6VcQEHUetqd3-6" value="View Items" style="ellipse;whiteSpace=wrap;html=1;" vertex="1" parent="5Vd59JES6VcQEHUetqd3-3">
          <mxGeometry x="70" y="60" width="120" height="80" as="geometry" />
        </mxCell>
        <mxCell id="5Vd59JES6VcQEHUetqd3-21" value="" style="edgeStyle=orthogonalEdgeStyle;rounded=0;orthogonalLoop=1;jettySize=auto;html=1;" edge="1" parent="5Vd59JES6VcQEHUetqd3-3" source="5Vd59JES6VcQEHUetqd3-7" target="5Vd59JES6VcQEHUetqd3-6">
          <mxGeometry relative="1" as="geometry" />
        </mxCell>
        <mxCell id="5Vd59JES6VcQEHUetqd3-7" value="Make your purchase" style="ellipse;whiteSpace=wrap;html=1;" vertex="1" parent="5Vd59JES6VcQEHUetqd3-3">
          <mxGeometry x="70" y="190" width="120" height="80" as="geometry" />
        </mxCell>
        <mxCell id="5Vd59JES6VcQEHUetqd3-4" value="&lt;br&gt;&lt;div&gt;&lt;b style=&quot;background-color: transparent; color: light-dark(rgb(0, 0, 0), rgb(255, 255, 255));&quot;&gt;Online Shopping UML&lt;/b&gt;&lt;/div&gt;" style="text;html=1;align=center;verticalAlign=middle;resizable=0;points=[];autosize=1;strokeColor=none;fillColor=none;" vertex="1" parent="5Vd59JES6VcQEHUetqd3-3">
          <mxGeometry x="55" y="-10" width="150" height="40" as="geometry" />
        </mxCell>
        <mxCell id="5Vd59JES6VcQEHUetqd3-22" value="" style="edgeStyle=orthogonalEdgeStyle;rounded=0;orthogonalLoop=1;jettySize=auto;html=1;" edge="1" parent="5Vd59JES6VcQEHUetqd3-3" source="5Vd59JES6VcQEHUetqd3-13" target="5Vd59JES6VcQEHUetqd3-7">
          <mxGeometry relative="1" as="geometry" />
        </mxCell>
        <mxCell id="5Vd59JES6VcQEHUetqd3-13" value="Checking out" style="ellipse;whiteSpace=wrap;html=1;" vertex="1" parent="5Vd59JES6VcQEHUetqd3-3">
          <mxGeometry x="70" y="310" width="120" height="80" as="geometry" />
        </mxCell>
        <mxCell id="5Vd59JES6VcQEHUetqd3-12" value="&amp;lt;&amp;lt;include&amp;gt;&amp;gt;" style="text;html=1;align=center;verticalAlign=middle;resizable=0;points=[];autosize=1;strokeColor=none;fillColor=none;" vertex="1" parent="5Vd59JES6VcQEHUetqd3-3">
          <mxGeometry x="50" y="160" width="90" height="30" as="geometry" />
        </mxCell>
        <mxCell id="5Vd59JES6VcQEHUetqd3-23" value="Customer sign up" style="ellipse;whiteSpace=wrap;html=1;" vertex="1" parent="5Vd59JES6VcQEHUetqd3-3">
          <mxGeometry x="70" y="460" width="120" height="80" as="geometry" />
        </mxCell>
        <mxCell id="5Vd59JES6VcQEHUetqd3-40" value="" style="endArrow=none;html=1;rounded=0;" edge="1" parent="5Vd59JES6VcQEHUetqd3-3" source="5Vd59JES6VcQEHUetqd3-6">
          <mxGeometry width="50" height="50" relative="1" as="geometry">
            <mxPoint x="240" y="90" as="sourcePoint" />
            <mxPoint x="290" y="40" as="targetPoint" />
          </mxGeometry>
        </mxCell>
        <mxCell id="5Vd59JES6VcQEHUetqd3-42" value="" style="endArrow=none;html=1;rounded=0;exitX=1.017;exitY=0.375;exitDx=0;exitDy=0;exitPerimeter=0;" edge="1" parent="5Vd59JES6VcQEHUetqd3-3" source="5Vd59JES6VcQEHUetqd3-13">
          <mxGeometry width="50" height="50" relative="1" as="geometry">
            <mxPoint x="240" y="220" as="sourcePoint" />
            <mxPoint x="290" y="180" as="targetPoint" />
          </mxGeometry>
        </mxCell>
        <mxCell id="5Vd59JES6VcQEHUetqd3-47" value="" style="endArrow=none;html=1;rounded=0;" edge="1" parent="5Vd59JES6VcQEHUetqd3-3" source="5Vd59JES6VcQEHUetqd3-13">
          <mxGeometry width="50" height="50" relative="1" as="geometry">
            <mxPoint x="240" y="100" as="sourcePoint" />
            <mxPoint x="290" y="50" as="targetPoint" />
          </mxGeometry>
        </mxCell>
        <mxCell id="5Vd59JES6VcQEHUetqd3-52" value="Enter search criteria" style="ellipse;whiteSpace=wrap;html=1;" vertex="1" parent="5Vd59JES6VcQEHUetqd3-3">
          <mxGeometry y="130" width="80" height="50" as="geometry" />
        </mxCell>
        <mxCell id="5Vd59JES6VcQEHUetqd3-54" value="" style="endArrow=classic;html=1;rounded=0;" edge="1" parent="5Vd59JES6VcQEHUetqd3-3">
          <mxGeometry width="50" height="50" relative="1" as="geometry">
            <mxPoint x="110" y="140" as="sourcePoint" />
            <mxPoint x="80" y="160" as="targetPoint" />
          </mxGeometry>
        </mxCell>
        <mxCell id="5Vd59JES6VcQEHUetqd3-55" value="&amp;lt;&amp;lt;extend&amp;gt;&amp;gt;" style="text;html=1;align=center;verticalAlign=middle;resizable=0;points=[];autosize=1;strokeColor=none;fillColor=none;" vertex="1" parent="5Vd59JES6VcQEHUetqd3-3">
          <mxGeometry y="360" width="90" height="30" as="geometry" />
        </mxCell>
        <mxCell id="5Vd59JES6VcQEHUetqd3-56" value="What payment method would you like to use?" style="ellipse;whiteSpace=wrap;html=1;" vertex="1" parent="5Vd59JES6VcQEHUetqd3-3">
          <mxGeometry x="-10" y="400" width="140" height="50" as="geometry" />
        </mxCell>
        <mxCell id="5Vd59JES6VcQEHUetqd3-58" value="" style="endArrow=classic;html=1;rounded=0;" edge="1" parent="5Vd59JES6VcQEHUetqd3-3">
          <mxGeometry width="50" height="50" relative="1" as="geometry">
            <mxPoint x="85" y="380" as="sourcePoint" />
            <mxPoint x="65" y="400" as="targetPoint" />
          </mxGeometry>
        </mxCell>
        <mxCell id="5Vd59JES6VcQEHUetqd3-60" value="&amp;lt;&amp;lt;extend&amp;gt;&amp;gt;" style="text;html=1;align=center;verticalAlign=middle;resizable=0;points=[];autosize=1;strokeColor=none;fillColor=none;" vertex="1" parent="5Vd59JES6VcQEHUetqd3-3">
          <mxGeometry x="170" y="540" width="90" height="30" as="geometry" />
        </mxCell>
        <mxCell id="5Vd59JES6VcQEHUetqd3-61" value="Enter username and password" style="ellipse;whiteSpace=wrap;html=1;" vertex="1" parent="5Vd59JES6VcQEHUetqd3-3">
          <mxGeometry x="10" y="580" width="120" height="40" as="geometry" />
        </mxCell>
        <mxCell id="5Vd59JES6VcQEHUetqd3-62" value="" style="endArrow=classic;html=1;rounded=0;" edge="1" parent="5Vd59JES6VcQEHUetqd3-3">
          <mxGeometry width="50" height="50" relative="1" as="geometry">
            <mxPoint x="90" y="535" as="sourcePoint" />
            <mxPoint x="70" y="575" as="targetPoint" />
          </mxGeometry>
        </mxCell>
        <mxCell id="5Vd59JES6VcQEHUetqd3-59" value="&amp;lt;&amp;lt;include&amp;gt;&amp;gt;" style="text;html=1;align=center;verticalAlign=middle;resizable=0;points=[];autosize=1;strokeColor=none;fillColor=none;" vertex="1" parent="5Vd59JES6VcQEHUetqd3-3">
          <mxGeometry y="540" width="90" height="30" as="geometry" />
        </mxCell>
        <mxCell id="5Vd59JES6VcQEHUetqd3-64" value="Password doesn&#39;t meet criteria" style="ellipse;whiteSpace=wrap;html=1;" vertex="1" parent="5Vd59JES6VcQEHUetqd3-3">
          <mxGeometry x="140" y="580" width="110" height="40" as="geometry" />
        </mxCell>
        <mxCell id="5Vd59JES6VcQEHUetqd3-65" value="" style="endArrow=classic;html=1;rounded=0;" edge="1" parent="5Vd59JES6VcQEHUetqd3-3">
          <mxGeometry width="50" height="50" relative="1" as="geometry">
            <mxPoint x="150" y="540" as="sourcePoint" />
            <mxPoint x="180" y="570" as="targetPoint" />
          </mxGeometry>
        </mxCell>
        <mxCell id="5Vd59JES6VcQEHUetqd3-24" value="&lt;div&gt;&amp;nbsp; &amp;nbsp; &amp;nbsp; &amp;nbsp; &amp;nbsp; &amp;nbsp; &amp;nbsp; &amp;nbsp; &amp;nbsp; &amp;nbsp; &amp;nbsp; &amp;nbsp; &amp;nbsp; &amp;nbsp; &amp;nbsp; Authentication&lt;/div&gt;" style="shape=umlActor;verticalLabelPosition=bottom;verticalAlign=top;html=1;outlineConnect=0;" vertex="1" parent="1">
          <mxGeometry x="450" y="80" width="30" height="60" as="geometry" />
        </mxCell>
        <mxCell id="5Vd59JES6VcQEHUetqd3-25" value="" style="endArrow=none;html=1;rounded=0;exitX=1;exitY=0.5;exitDx=0;exitDy=0;" edge="1" parent="1" source="5Vd59JES6VcQEHUetqd3-23" target="5Vd59JES6VcQEHUetqd3-24">
          <mxGeometry width="50" height="50" relative="1" as="geometry">
            <mxPoint x="400" y="440" as="sourcePoint" />
            <mxPoint x="450" y="390" as="targetPoint" />
          </mxGeometry>
        </mxCell>
        <mxCell id="5Vd59JES6VcQEHUetqd3-26" value="ID provider" style="shape=umlActor;verticalLabelPosition=bottom;verticalAlign=top;html=1;outlineConnect=0;" vertex="1" parent="1">
          <mxGeometry x="450" y="230" width="30" height="60" as="geometry" />
        </mxCell>
        <mxCell id="5Vd59JES6VcQEHUetqd3-27" value="Credit service" style="shape=umlActor;verticalLabelPosition=bottom;verticalAlign=top;html=1;outlineConnect=0;" vertex="1" parent="1">
          <mxGeometry x="450" y="390" width="30" height="60" as="geometry" />
        </mxCell>
        <mxCell id="5Vd59JES6VcQEHUetqd3-30" value="Apple Pay" style="shape=umlActor;verticalLabelPosition=bottom;verticalAlign=top;html=1;outlineConnect=0;" vertex="1" parent="1">
          <mxGeometry x="450" y="520" width="30" height="60" as="geometry" />
        </mxCell>
        <mxCell id="5Vd59JES6VcQEHUetqd3-31" value="" style="endArrow=none;html=1;rounded=0;entryX=0.5;entryY=0.5;entryDx=0;entryDy=0;entryPerimeter=0;exitX=1;exitY=0.5;exitDx=0;exitDy=0;" edge="1" parent="1" source="5Vd59JES6VcQEHUetqd3-13" target="5Vd59JES6VcQEHUetqd3-27">
          <mxGeometry width="50" height="50" relative="1" as="geometry">
            <mxPoint x="400" y="440" as="sourcePoint" />
            <mxPoint x="450" y="390" as="targetPoint" />
          </mxGeometry>
        </mxCell>
        <mxCell id="5Vd59JES6VcQEHUetqd3-32" value="" style="endArrow=none;html=1;rounded=0;" edge="1" parent="1" source="5Vd59JES6VcQEHUetqd3-13" target="5Vd59JES6VcQEHUetqd3-30">
          <mxGeometry width="50" height="50" relative="1" as="geometry">
            <mxPoint x="400" y="440" as="sourcePoint" />
            <mxPoint x="450" y="390" as="targetPoint" />
          </mxGeometry>
        </mxCell>
        <mxCell id="5Vd59JES6VcQEHUetqd3-41" value="" style="endArrow=none;html=1;rounded=0;exitX=0.95;exitY=0.738;exitDx=0;exitDy=0;exitPerimeter=0;entryX=0;entryY=0.3333333333333333;entryDx=0;entryDy=0;entryPerimeter=0;" edge="1" parent="1" source="5Vd59JES6VcQEHUetqd3-6" target="5Vd59JES6VcQEHUetqd3-26">
          <mxGeometry width="50" height="50" relative="1" as="geometry">
            <mxPoint x="370" y="210" as="sourcePoint" />
            <mxPoint x="420" y="160" as="targetPoint" />
          </mxGeometry>
        </mxCell>
        <mxCell id="5Vd59JES6VcQEHUetqd3-48" value="" style="endArrow=none;html=1;rounded=0;exitX=0.75;exitY=0.1;exitDx=0;exitDy=0;exitPerimeter=0;" edge="1" parent="1" source="5Vd59JES6VcQEHUetqd3-1" target="5Vd59JES6VcQEHUetqd3-7">
          <mxGeometry width="50" height="50" relative="1" as="geometry">
            <mxPoint x="110" y="285" as="sourcePoint" />
            <mxPoint x="160" y="235" as="targetPoint" />
          </mxGeometry>
        </mxCell>
        <mxCell id="5Vd59JES6VcQEHUetqd3-49" value="" style="endArrow=none;html=1;rounded=0;entryX=0.083;entryY=0.275;entryDx=0;entryDy=0;entryPerimeter=0;exitX=0.5;exitY=0;exitDx=0;exitDy=0;exitPerimeter=0;" edge="1" parent="1" source="5Vd59JES6VcQEHUetqd3-1" target="5Vd59JES6VcQEHUetqd3-6">
          <mxGeometry width="50" height="50" relative="1" as="geometry">
            <mxPoint x="100" y="260" as="sourcePoint" />
            <mxPoint x="150" y="210" as="targetPoint" />
          </mxGeometry>
        </mxCell>
        <mxCell id="5Vd59JES6VcQEHUetqd3-50" value="" style="endArrow=none;html=1;rounded=0;entryX=0;entryY=0.5;entryDx=0;entryDy=0;exitX=0;exitY=1;exitDx=0;exitDy=0;exitPerimeter=0;" edge="1" parent="1" source="5Vd59JES6VcQEHUetqd3-1" target="5Vd59JES6VcQEHUetqd3-23">
          <mxGeometry width="50" height="50" relative="1" as="geometry">
            <mxPoint x="110" y="315" as="sourcePoint" />
            <mxPoint x="160" y="265" as="targetPoint" />
          </mxGeometry>
        </mxCell>
      </root>
    </mxGraphModel>
  </diagram>
</mxfile>
